<svg xmlns="http://www.w3.org/2000/svg" viewBox="0 0 512 512"><title>01 无绿边 满幅棋盘</title><rect width="512" height="512" rx="112" fill="#d8ad69"/><path d="M72 0l5 512M134 0l3 512M196 0l2 512M258 0v512M320 0l-2 512M382 0l-3 512M444 0l-5 512M0 72l512 3M0 134l512 2M0 196l512 1M0 258h512M0 320l512-1M0 382l512-2M0 444l512-3" stroke="#5b4934" stroke-width="6" opacity=".66"/><circle cx="199" cy="260" r="78" fill="#20221f"/><circle cx="316" cy="254" r="78" fill="#f7f3e8" stroke="#8e8578" stroke-width="6"/><text x="199" y="294" text-anchor="middle" font-size="106" font-family="serif" fill="#f7f3e8">半</text><text x="316" y="288" text-anchor="middle" font-size="106" font-family="serif" fill="#20221f">步</text></svg>
