<svg xmlns="http://www.w3.org/2000/svg" viewBox="0 0 512 512"><title>02 无绿边 象牙底</title><rect width="512" height="512" rx="112" fill="#f7f3e8"/><path d="M54 42Q38 53 42 78V439Q44 470 75 468L442 461Q471 460 468 430L461 75Q460 47 431 48Z" fill="#d8ad69"/><path d="M107 48l4 416M171 46l3 419M235 44v420M299 46l-2 417M363 47l-4 415M427 48l-5 412M43 108l423 2M42 172l424 2M41 236h426M42 300l424-2M43 364l421-4M44 428l418-5" stroke="#5b4934" stroke-width="6" opacity=".65" stroke-linecap="round"/><circle cx="199" cy="260" r="78" fill="#20221f"/><circle cx="316" cy="254" r="78" fill="#f7f3e8" stroke="#8e8578" stroke-width="6"/><text x="199" y="294" text-anchor="middle" font-size="106" font-family="serif" fill="#f7f3e8">半</text><text x="316" y="288" text-anchor="middle" font-size="106" font-family="serif" fill="#20221f">步</text></svg>
