<svg xmlns="http://www.w3.org/2000/svg" viewBox="0 0 512 512"><title>06 圆盘 纯净切面</title><rect width="512" height="512" rx="112" fill="#f7f3e8"/><defs><clipPath id="c"><circle cx="256" cy="256" r="218"/></clipPath></defs><g clip-path="url(#c)"><rect x="38" y="38" width="436" height="436" fill="#d8ad69"/><path d="M76 38v436M136 38v436M196 38v436M256 38v436M316 38v436M376 38v436M436 38v436M38 76h436M38 136h436M38 196h436M38 256h436M38 316h436M38 376h436M38 436h436" stroke="#5b4934" stroke-width="6" opacity=".68"/></g><circle cx="201" cy="259" r="77" fill="#20221f"/><circle cx="316" cy="253" r="77" fill="#f7f3e8" stroke="#8e8578" stroke-width="6"/><text x="201" y="292" text-anchor="middle" font-size="104" font-family="serif" fill="#f7f3e8">半</text><text x="316" y="286" text-anchor="middle" font-size="104" font-family="serif" fill="#20221f">步</text></svg>
